HIERARCHY
ROOT Hips
{
	OFFSET 0.00000 0.00000 0.00000
	CHANNELS 6 Xposition Yposition Zposition Zrotation Yrotation Xrotation 
	JOINT LHipJoint
	{
		OFFSET 0 0 0
		CHANNELS 3 Zrotation Yrotation Xrotation
		JOINT LeftUpLeg
		{
			OFFSET 1.40252 -1.71424 0.59123
			CHANNELS 3 Zrotation Yrotation Xrotation
			JOINT LeftLeg
			{
				OFFSET 2.50071 -6.87065 0.00000
				CHANNELS 3 Zrotation Yrotation Xrotation
				JOINT LeftFoot
				{
					OFFSET 2.50834 -6.89162 0.00000
					CHANNELS 3 Zrotation Yrotation Xrotation
					JOINT LeftToeBase
					{
						OFFSET 0.21528 -0.59149 1.64448
						CHANNELS 3 Zrotation Yrotation Xrotation
						End Site
						{
							OFFSET 0.00000 -0.00000 0.87921
						}
					}
				}
			}
		}
	}
	JOINT RHipJoint
	{
		OFFSET 0 0 0
		CHANNELS 3 Zrotation Yrotation Xrotation
		JOINT RightUpLeg
		{
			OFFSET -1.53651 -1.71424 0.59123
			CHANNELS 3 Zrotation Yrotation Xrotation
			JOINT RightLeg
			{
				OFFSET -2.45783 -6.75285 0.00000
				CHANNELS 3 Zrotation Yrotation Xrotation
				JOINT RightFoot
				{
					OFFSET -2.51921 -6.92147 0.00000
					CHANNELS 3 Zrotation Yrotation Xrotation
					JOINT RightToeBase
					{
						OFFSET -0.21777 -0.59831 1.59676
						CHANNELS 3 Zrotation Yrotation Xrotation
						End Site
						{
							OFFSET -0.00000 -0.00000 0.85779
						}
					}
				}
			}
		}
	}
	JOINT LowerBack
	{
		OFFSET 0 0 0
		CHANNELS 3 Zrotation Yrotation Xrotation
		JOINT Spine
		{
			OFFSET 0.02212 2.07622 0.03776
			CHANNELS 3 Zrotation Yrotation Xrotation
			JOINT Spine1
			{
				OFFSET -0.00949 2.08009 -0.00123
				CHANNELS 3 Zrotation Yrotation Xrotation
				JOINT Neck
				{
					OFFSET 0 0 0
					CHANNELS 3 Zrotation Yrotation Xrotation
					JOINT Neck1
					{
						OFFSET 0.00288 1.67184 0.11155
						CHANNELS 3 Zrotation Yrotation Xrotation
						JOINT Head
						{
							OFFSET -0.02412 1.66997 -0.22040
							CHANNELS 3 Zrotation Yrotation Xrotation
							End Site
							{
								OFFSET -0.01026 1.69043 -0.08683
							}
						}
					}
				}
				JOINT LeftShoulder
				{
					OFFSET 0 0 0
					CHANNELS 3 Zrotation Yrotation Xrotation
					JOINT LeftArm
					{
						OFFSET 3.97941 0.74048 0.81462
						CHANNELS 3 Zrotation Yrotation Xrotation
						JOINT LeftForeArm
						{
							OFFSET 5.01834 -0.00000 -0.00000
							CHANNELS 3 Zrotation Yrotation Xrotation
							JOINT LeftHand
							{
								OFFSET 3.48690 -0.00000 0.00000
								CHANNELS 3 Zrotation Yrotation Xrotation
								JOINT LeftFingerBase
								{
									OFFSET 0 0 0
									CHANNELS 3 Zrotation Yrotation Xrotation
									JOINT LeftHandIndex1
									{
										OFFSET 0.76799 -0.00000 0.00000
										CHANNELS 3 Zrotation Yrotation Xrotation
										End Site
										{
											OFFSET 0.61917 -0.00000 0.00000
										}
									}
								}
								JOINT LThumb
								{
									OFFSET 0 0 0
									CHANNELS 3 Zrotation Yrotation Xrotation
									End Site
									{
										OFFSET 0.62863 -0.00000 0.62863
									}
								}
							}
						}
					}
				}
				JOINT RightShoulder
				{
					OFFSET 0 0 0
					CHANNELS 3 Zrotation Yrotation Xrotation
					JOINT RightArm
					{
						OFFSET -3.88702 1.02123 0.44091
						CHANNELS 3 Zrotation Yrotation Xrotation
						JOINT RightForeArm
						{
							OFFSET -4.70164 -0.00000 0.00000
							CHANNELS 3 Zrotation Yrotation Xrotation
							JOINT RightHand
							{
								OFFSET -3.49911 -0.00000 0.00000
								CHANNELS 3 Zrotation Yrotation Xrotation
								JOINT RightFingerBase
								{
									OFFSET 0 0 0
									CHANNELS 3 Zrotation Yrotation Xrotation
									JOINT RightHandIndex1
									{
										OFFSET -0.73933 -0.00000 0.00000
										CHANNELS 3 Zrotation Yrotation Xrotation
										End Site
										{
											OFFSET -0.59607 -0.00000 0.00000
										}
									}
								}
								JOINT RThumb
								{
									OFFSET 0 0 0
									CHANNELS 3 Zrotation Yrotation Xrotation
									End Site
									{
										OFFSET -0.60517 -0.00000 0.60517
									}
								}
							}
						}
					}
				}
			}
		}
	}
}
MOTION
Frames: 9
Frame Time: .0083333
-12.5512 17.49 -0.5928 0 0 0 0 0 0 -21 0 0 0 0 0 0 0 0 0 0 0 0 0 0 21 0 0 0 0 0 0 0 0 0 0 0 0 0 0 0 0 0 0 0 0 0 0 -16 0 0 21 0 0 11 0 0 0 -8 0 0 0 0 0 0 0 0 0 0 0 0 0 0 0 0 0 0 0 0 8 0 0 0 0 0 0 0 0 0 0 0 0 0 0 0 0 0
-12.5512 17.4900 -0.5928 -103.1680 86.4703 -95.4829 0.0000 0.0000 0.0000 -14.5360 -1.3815 -5.1069 0.6538 5.1719 14.3996 1.7406 -8.1939 -23.6401 0.0612 1.5964 4.3914 0.0000 0.0000 0.0000 16.6769 13.6943 -15.0535 -0.2613 -3.2887 9.0835 0.7526 -15.9919 -11.4761 -0.1134 2.1713 -5.9793 4.7681 0.6360 -6.7378 1.4809 0.4548 -0.1651 -1.0987 0.3094 3.6359 -7.0736 -13.7339 -7.7936 2.5868 -18.0041 13.9746 0.3886 -8.8869 6.3923 0.0000 -0.0000 0.0000 -79.9141 -5.8578 79.1789 128.1961 -53.6976 -92.3786 -0.0000 0.0000 -20.8818 11.1228 41.3508 7.4007 -7.1250 0.0000 -0.0000 -36.0196 68.6864 -21.4726 0.0000 -0.0000 0.0000 92.7851 -12.8217 55.2355 -125.0537 54.8055 -89.8279 0.0000 -0.0000 -5.3754 -27.2168 10.0090 -5.1079 7.1250 -0.0000 -0.0000 -0.1472 -18.7546 -0.0921
-12.6586 17.4851 -0.6636 -97.2234 87.4526 -89.6428 0.0000 0.0000 0.0000 -16.0519 1.7676 -6.7818 0.5467 4.7369 13.1597 1.5093 -5.8640 -22.0558 0.6381 5.1107 14.2246 0.0000 0.0000 0.0000 15.2936 13.1277 -16.0654 -0.3130 -3.5966 9.9445 0.6405 -15.2462 -12.1230 -0.0819 1.8462 -5.0807 4.1924 0.6914 -6.4533 0.9216 0.5879 0.0772 -1.3435 0.3692 3.7346 -6.8420 -13.5617 -7.3544 3.3345 -17.9078 12.7958 0.6664 -8.8036 5.9876 0.0000 -0.0000 0.0000 -79.2317 -6.0372 78.7823 128.5176 -53.5762 -92.6375 -0.0000 0.0000 -20.9913 10.6058 41.9671 7.1371 -7.1250 0.0000 -0.0000 -37.6421 68.9907 -22.7862 0.0000 -0.0000 0.0000 91.7052 -11.8885 56.7339 -125.2986 54.7242 -90.0279 0.0000 -0.0000 -6.5139 -28.4857 8.5118 -4.5920 7.1250 -0.0000 -0.0000 -1.1496 -20.3173 -0.6791
-12.7595 17.4756 -0.7251 -84.4426 88.0994 -77.1017 0.0000 0.0000 0.0000 -16.9837 2.6680 -6.9695 0.5161 4.6047 12.7845 1.4609 -6.5394 -21.6471 0.8262 5.7991 16.2027 0.0000 0.0000 0.0000 14.3066 12.7601 -16.9204 -0.3767 -3.9420 10.9136 0.5413 -14.4501 -12.3174 -0.1724 2.6749 -7.3749 3.7952 0.7650 -6.1340 0.4626 0.7315 0.3815 -1.5831 0.4399 3.8795 -6.6785 -13.4194 -6.9774 4.0584 -17.8216 11.6688 0.9346 -8.7332 5.6176 0.0000 -0.0000 0.0000 -78.5882 -6.2555 78.3439 128.6536 -53.5243 -92.7469 -0.0000 0.0000 -21.0770 9.7476 42.3790 6.6049 -7.1250 0.0000 -0.0000 -39.2729 69.0217 -23.9068 0.0000 -0.0000 0.0000 90.6739 -10.9508 58.1631 -125.6483 54.6066 -90.3132 0.0000 -0.0000 -7.6371 -29.5373 7.0691 -3.9890 7.1250 -0.0000 -0.0000 -2.0055 -21.8697 -1.1148
-12.8526 17.4665 -0.7831 -68.9778 88.5467 -61.9795 0.0000 0.0000 0.0000 -17.7925 3.2805 -6.7978 0.4671 4.3836 12.1584 1.4126 -6.9014 -21.2641 0.9314 6.1477 17.2135 0.0000 0.0000 0.0000 13.5105 12.2652 -17.5491 -0.4333 -4.2243 11.7085 0.4565 -13.7618 -12.5253 -0.2209 3.0252 -8.3490 3.6147 0.8163 -5.9224 -0.0455 0.8276 0.7822 -1.9984 0.4971 4.1872 -6.7114 -13.1603 -6.6314 5.0768 -17.5871 10.7863 1.3127 -8.5790 5.3685 -0.0000 -0.0000 0.0000 -77.8608 -6.5917 77.8656 128.7186 -53.4994 -92.7991 -0.0000 0.0000 -21.1808 8.4124 42.7610 5.7337 -7.1250 0.0000 -0.0000 -41.3273 68.8704 -25.1729 -0.0000 -0.0000 0.0000 88.4426 -8.9502 60.8135 -126.4934 54.3155 -91.0009 0.0000 -0.0000 -10.1980 -31.7375 4.8791 -3.0114 7.1250 -0.0000 -0.0000 -3.7761 -24.2493 -1.8960
-12.9364 17.4572 -0.8294 -39.9378 88.6659 -33.1787 0.0000 0.0000 0.0000 -18.5622 3.8160 -6.5414 0.4074 4.0975 11.3510 1.3698 -7.0143 -20.9302 0.9824 6.3092 17.6843 0.0000 0.0000 0.0000 12.8407 11.9506 -18.1400 -0.4868 -4.4736 12.4131 0.3707 -13.3366 -13.3839 -0.1252 2.2811 -6.2833 3.1817 0.9120 -6.0213 -0.3904 0.9893 1.2111 -2.0927 0.5837 4.6983 -6.1061 -12.6034 -5.1779 5.2214 -16.8634 8.0910 1.5372 -8.2749 4.2164 0.0000 0.0000 0.0000 -77.4164 -6.9553 77.2202 128.7229 -53.4978 -92.8026 -0.0000 0.0000 -21.2264 6.2440 43.1458 4.2790 -7.1250 0.0000 -0.0000 -44.1759 68.4483 -26.7487 0.0000 0.0000 0.0000 88.9523 -8.7640 60.6182 -126.3006 54.3828 -90.8442 0.0000 -0.0000 -10.0731 -31.7960 4.5418 -2.8104 7.1250 -0.0000 -0.0000 -3.8444 -24.6406 -1.8956
-13.0162 17.4525 -0.8741 -11.7195 88.6331 -5.2714 0.0000 0.0000 0.0000 -19.4284 4.1346 -6.1400 0.3550 3.8279 10.5931 1.3272 -7.0251 -20.5960 0.9661 6.2581 17.5352 0.0000 0.0000 0.0000 12.1469 11.4318 -18.5967 -0.5438 -4.7246 13.1248 0.2603 -13.0943 -14.9288 -0.0177 0.8595 -2.3624 2.4686 0.8732 -5.5976 -0.5649 1.0101 1.3302 -1.8752 0.5766 4.5726 -5.8387 -11.9070 -2.5895 5.5947 -15.9426 4.2799 2.1600 -7.9052 2.8381 0.0000 0.0000 0.0000 -77.3283 -6.7457 76.5373 128.6875 -53.5113 -92.7741 -0.0000 0.0000 -21.0764 3.8950 43.4780 2.6822 -7.1250 0.0000 -0.0000 -47.0324 67.9300 -28.2376 0.0000 0.0000 0.0000 89.0168 -8.7045 60.5099 -125.9056 54.5190 -90.5229 0.0000 -0.0000 -10.1753 -31.7141 4.0974 -2.5282 7.1250 -0.0000 -0.0000 -3.8149 -25.1655 -1.8344
-13.0950 17.4468 -0.9189 9.1732 88.3078 15.3445 0.0000 0.0000 0.0000 -20.3122 4.2155 -5.7147 0.3083 3.5700 9.8698 1.2983 -6.6549 -20.3726 0.8270 5.8019 16.2107 0.0000 0.0000 0.0000 11.4855 10.7804 -19.2026 -0.6114 -5.0047 13.9219 0.1673 -12.8567 -15.9980 -0.0002 0.0933 -0.2565 1.8598 0.8407 -5.2086 -0.7655 1.0273 1.4308 -1.7435 0.5714 4.4497 -5.0816 -12.4796 -3.8482 3.8060 -16.6125 5.2827 1.3260 -8.2467 3.1838 0.0000 -0.0000 0.0000 -77.2132 -6.4673 76.1051 128.5785 -53.5530 -92.6865 -0.0000 0.0000 -20.9653 3.5882 43.6759 2.4796 -7.1250 0.0000 -0.0000 -47.6903 67.9639 -28.7349 0.0000 -0.0000 0.0000 89.0707 -8.6815 60.4557 -125.4662 54.6681 -90.1647 0.0000 -0.0000 -10.2250 -31.7599 3.6042 -2.2286 7.1250 -0.0000 -0.0000 -3.8833 -25.7410 -1.8153
-13.1602 17.4324 -0.9561 27.8736 87.9180 33.5196 0.0000 0.0000 0.0000 -21.3820 4.2033 -4.9373 0.2634 3.3017 9.1198 1.2675 -6.2105 -20.1378 0.6983 5.3414 14.8850 0.0000 0.0000 0.0000 10.7307 9.7372 -19.5054 -0.6728 -5.2453 14.6094 0.1369 -12.6941 -16.1880 -0.0044 0.4280 -1.1760 1.0660 0.7586 -4.7525 -1.0098 0.9891 1.6263 -1.5579 0.5365 4.3826 -4.8005 -12.6295 -4.1184 3.2100 -16.7844 5.5594 1.0616 -8.3399 3.2446 -0.0000 -0.0000 0.0000 -77.0481 -6.1140 75.8178 128.4580 -53.5988 -92.5895 -0.0000 0.0000 -20.6985 4.1177 43.6302 2.8438 -7.1250 0.0000 -0.0000 -47.1099 68.1009 -28.4627 -0.0000 -0.0000 0.0000 89.0933 -8.8220 60.4374 -125.1394 54.7772 -89.8979 0.0000 -0.0000 -9.8964 -31.9355 3.1318 -1.9503 7.1250 -0.0000 -0.0000 -4.0477 -26.2871 -1.8408
